<svg width="23" height="23" viewBox="0 0 23 23" fill="none" xmlns="http://www.w3.org/2000/svg">
<path d="M15.0938 4.3125C16.0461 4.3125 16.949 4.68984 17.6318 5.36816C18.3146 6.04648 18.6875 6.95391 18.6875 7.90625V15.0938C18.6875 16.0461 18.3102 16.949 17.6318 17.6318C16.9535 18.3146 16.0461 18.6875 15.0938 18.6875H7.90625C6.95391 18.6875 6.05098 18.3102 5.36816 17.6318C4.68535 16.9535 4.3125 16.0461 4.3125 15.0938V7.90625C4.3125 6.95391 4.68984 6.05098 5.36816 5.36816C6.04648 4.68535 6.95391 4.3125 7.90625 4.3125H15.0938ZM15.0938 2.875H7.90625C5.13906 2.875 2.875 5.13906 2.875 7.90625V15.0938C2.875 17.8609 5.13906 20.125 7.90625 20.125H15.0938C17.8609 20.125 20.125 17.8609 20.125 15.0938V7.90625C20.125 5.13906 17.8609 2.875 15.0938 2.875Z" fill="#0098DA"/>
<path d="M16.1719 7.90625C15.5744 7.90625 15.0938 7.42559 15.0938 6.82812C15.0938 6.23066 15.5744 5.75 16.1719 5.75C16.7648 5.75 17.25 6.23066 17.25 6.82812C17.25 7.42559 16.7648 7.90625 16.1719 7.90625ZM11.5 8.625C13.0857 8.625 14.375 9.91426 14.375 11.5C14.375 13.0857 13.0857 14.375 11.5 14.375C9.91426 14.375 8.625 13.0857 8.625 11.5C8.625 9.91426 9.91426 8.625 11.5 8.625ZM11.5 7.1875C9.11914 7.1875 7.1875 9.11914 7.1875 11.5C7.1875 13.8809 9.11914 15.8125 11.5 15.8125C13.8809 15.8125 15.8125 13.8809 15.8125 11.5C15.8125 9.11914 13.8809 7.1875 11.5 7.1875Z" fill="#0098DA"/>
</svg>
