<svg width="19" height="19" viewBox="0 0 19 19" fill="none" xmlns="http://www.w3.org/2000/svg">
<path d="M16.458 15.5933L12.4947 11.593C13.2703 10.6207 13.7379 9.38866 13.7379 8.04901C13.7379 4.91327 11.1959 2.37128 8.05645 2.37128C4.91699 2.37128 2.375 4.91698 2.375 8.05272C2.375 11.1885 4.91699 13.7305 8.05645 13.7305C9.41465 13.7305 10.6578 13.2555 11.6375 12.4613L15.5748 16.4357C15.6936 16.5619 15.8568 16.625 16.0164 16.625C16.1686 16.625 16.3207 16.5693 16.4357 16.458C16.6807 16.2242 16.6881 15.8383 16.458 15.5933ZM8.05645 12.5096C6.86523 12.5096 5.74453 12.0457 4.90215 11.2033C4.05977 10.3609 3.5959 9.24022 3.5959 8.05272C3.5959 6.86151 4.05977 5.74081 4.90215 4.90214C5.74453 4.05975 6.86523 3.59589 8.05645 3.59589C9.24766 3.59589 10.3684 4.05975 11.2107 4.90214C12.0531 5.74452 12.517 6.86522 12.517 8.05272C12.517 9.24393 12.0531 10.3646 11.2107 11.2033C10.3684 12.0457 9.24766 12.5096 8.05645 12.5096Z" fill="#D2D2D2"/>
</svg>
