<svg width="179" height="31" viewBox="0 0 179 31" fill="none" xmlns="http://www.w3.org/2000/svg">
<path d="M12 21.7734V24H0.503906L6.91406 16.3242C7.71094 15.3633 8.29297 14.5195 8.66016 13.793C9.02734 13.0664 9.21094 12.4062 9.21094 11.8125C9.21094 10.9609 8.95703 10.293 8.44922 9.80859C7.94922 9.31641 7.26172 9.07031 6.38672 9.07031C5.60547 9.07031 4.96094 9.31641 4.45312 9.80859C3.94531 10.293 3.66016 10.9336 3.59766 11.7305H0.914062C0.914062 10.1914 1.42969 8.96484 2.46094 8.05078C3.49219 7.12891 4.87891 6.66797 6.62109 6.66797C8.27734 6.66797 9.58203 7.09375 10.5352 7.94531C11.4961 8.79688 11.9766 9.95703 11.9766 11.4258C11.9766 12.4727 11.6992 13.5312 11.1445 14.6016C10.5977 15.6641 9.43359 17.2109 7.65234 19.2422L5.47266 21.7734H12ZM23.1211 12.4102L18.75 18.5742H23.0508V14.1094C23.0508 13.875 23.0547 13.6133 23.0625 13.3242C23.0781 13.0352 23.0977 12.7305 23.1211 12.4102ZM23.0508 24V20.5195H14.8242L24.8086 6.66797H25.5938V18.5742H27.6797V20.5195H25.5938V24H23.0508ZM30.7734 24V5.83594H33.1641V14.707C33.6719 13.9414 34.2695 13.3828 34.957 13.0312C35.6445 12.6797 36.4805 12.5039 37.4648 12.5039C38.293 12.5039 38.9961 12.6367 39.5742 12.9023C40.1602 13.1602 40.6172 13.5469 40.9453 14.0625C41.1406 14.3672 41.2812 14.7227 41.3672 15.1289C41.4531 15.5352 41.4961 16.2461 41.4961 17.2617V24H38.9297V18.293C38.9297 16.832 38.75 15.8633 38.3906 15.3867C38.0391 14.9023 37.4102 14.6602 36.5039 14.6602C35.9102 14.6602 35.3789 14.7695 34.9102 14.9883C34.4492 15.207 34.0859 15.5156 33.8203 15.9141C33.6328 16.1797 33.5 16.5234 33.4219 16.9453C33.3516 17.3594 33.3164 18.0234 33.3164 18.9375V24H30.7734Z" fill="#707070"/>
<path d="M89.3008 14.6602C89.5742 13.9258 89.9336 13.3828 90.3789 13.0312C90.832 12.6797 91.3906 12.5039 92.0547 12.5039C92.4141 12.5039 92.7656 12.5469 93.1094 12.6328C93.4609 12.7188 93.8047 12.8438 94.1406 13.0078L93.2266 15.1641C93.0078 15.0078 92.7695 14.8945 92.5117 14.8242C92.2617 14.7461 91.9805 14.707 91.668 14.707C90.8242 14.707 90.2188 15.0469 89.8516 15.7266C89.4844 16.3984 89.3008 17.5312 89.3008 19.125V24H86.7578V12.8672H89.3008V14.6602ZM106.047 24H103.504V22.5586C103.051 23.1992 102.52 23.6758 101.91 23.9883C101.309 24.3008 100.617 24.457 99.8359 24.457C98.2656 24.457 97.0273 23.9219 96.1211 22.8516C95.2227 21.7734 94.7734 20.3008 94.7734 18.4336C94.7734 16.6602 95.2344 15.2305 96.1562 14.1445C97.0781 13.0508 98.2812 12.5039 99.7656 12.5039C100.672 12.5039 101.445 12.6953 102.086 13.0781C102.734 13.4531 103.207 13.9961 103.504 14.707V12.8906H106.047V24ZM103.574 18.4102C103.574 17.2617 103.305 16.3672 102.766 15.7266C102.234 15.0859 101.488 14.7656 100.527 14.7656C99.5664 14.7656 98.8086 15.0977 98.2539 15.7617C97.707 16.418 97.4336 17.332 97.4336 18.5039C97.4336 19.6836 97.6992 20.5938 98.2305 21.2344C98.7617 21.875 99.5117 22.1953 100.48 22.1953C101.395 22.1953 102.137 21.8477 102.707 21.1523C103.285 20.457 103.574 19.543 103.574 18.4102ZM108.285 21.9844L110.395 20.8359C110.551 21.3906 110.84 21.8125 111.262 22.1016C111.684 22.3906 112.227 22.5352 112.891 22.5352C113.461 22.5352 113.906 22.4062 114.227 22.1484C114.555 21.8828 114.719 21.5234 114.719 21.0703C114.719 20.4688 114.141 19.9531 112.984 19.5234C112.594 19.3828 112.293 19.2656 112.082 19.1719C110.895 18.6797 110.062 18.1797 109.586 17.6719C109.117 17.1641 108.883 16.5469 108.883 15.8203C108.883 14.8281 109.27 14.0234 110.043 13.4062C110.824 12.7891 111.855 12.4805 113.137 12.4805C113.996 12.4805 114.73 12.6406 115.34 12.9609C115.957 13.2734 116.406 13.7227 116.688 14.3086L114.883 15.5508C114.75 15.1992 114.516 14.9219 114.18 14.7188C113.852 14.5078 113.469 14.4023 113.031 14.4023C112.547 14.4023 112.156 14.5195 111.859 14.7539C111.57 14.9805 111.426 15.2852 111.426 15.668C111.426 16.2461 112.082 16.7734 113.395 17.25C113.809 17.3984 114.129 17.5195 114.355 17.6133C115.379 18.0195 116.109 18.4805 116.547 18.9961C116.992 19.5039 117.215 20.1406 117.215 20.9062C117.215 22.0156 116.812 22.8867 116.008 23.5195C115.203 24.1445 114.094 24.457 112.68 24.457C111.594 24.457 110.691 24.2539 109.973 23.8477C109.254 23.4414 108.691 22.8203 108.285 21.9844ZM119.992 24V6.16406L130.891 16.6523C131.188 16.9492 131.488 17.2656 131.793 17.6016C132.098 17.9375 132.418 18.3164 132.754 18.7383V6.84375H135.332V24.668L124.211 13.9922C123.914 13.7031 123.625 13.3984 123.344 13.0781C123.07 12.7578 122.809 12.4219 122.559 12.0703V24H119.992ZM149.77 18.8203H140.887C140.949 19.8594 141.258 20.6719 141.812 21.2578C142.367 21.8359 143.105 22.125 144.027 22.125C144.848 22.125 145.531 21.9531 146.078 21.6094C146.625 21.2656 147.102 20.7109 147.508 19.9453L149.652 21.1406C149.027 22.2578 148.254 23.0898 147.332 23.6367C146.41 24.1836 145.328 24.457 144.086 24.457C142.305 24.457 140.887 23.9141 139.832 22.8281C138.777 21.7422 138.25 20.293 138.25 18.4805C138.25 16.7383 138.793 15.3086 139.879 14.1914C140.973 13.0664 142.375 12.5039 144.086 12.5039C145.875 12.5039 147.27 13.0156 148.27 14.0391C149.27 15.0625 149.77 16.4961 149.77 18.3398V18.8203ZM147.133 17.1094C147.031 16.3125 146.727 15.707 146.219 15.293C145.711 14.8711 145.016 14.6602 144.133 14.6602C143.297 14.6602 142.625 14.8633 142.117 15.2695C141.609 15.6758 141.254 16.2891 141.051 17.1094H147.133ZM163.059 24.668L160.492 18.8906C160.297 18.4453 160.137 18.0508 160.012 17.707C159.887 17.3555 159.773 17.0117 159.672 16.6758C159.5 17.1836 159.348 17.6211 159.215 17.9883C159.082 18.3477 158.977 18.6172 158.898 18.7969L156.262 24.668L150.508 12.8906H153.215L155.711 18.2461C155.812 18.4727 155.91 18.7852 156.004 19.1836C156.105 19.5742 156.191 20.0078 156.262 20.4844C156.27 20.2031 156.316 19.9102 156.402 19.6055C156.488 19.3008 156.633 18.9258 156.836 18.4805L159.555 12.4805H159.766L162.531 18.4805C162.703 18.8555 162.828 19.2031 162.906 19.5234C162.992 19.8438 163.043 20.1641 163.059 20.4844C163.129 20.0625 163.219 19.6641 163.328 19.2891C163.438 18.9141 163.562 18.5742 163.703 18.2695L166.152 12.8906H168.836L163.059 24.668ZM169.152 21.9844L171.262 20.8359C171.418 21.3906 171.707 21.8125 172.129 22.1016C172.551 22.3906 173.094 22.5352 173.758 22.5352C174.328 22.5352 174.773 22.4062 175.094 22.1484C175.422 21.8828 175.586 21.5234 175.586 21.0703C175.586 20.4688 175.008 19.9531 173.852 19.5234C173.461 19.3828 173.16 19.2656 172.949 19.1719C171.762 18.6797 170.93 18.1797 170.453 17.6719C169.984 17.1641 169.75 16.5469 169.75 15.8203C169.75 14.8281 170.137 14.0234 170.91 13.4062C171.691 12.7891 172.723 12.4805 174.004 12.4805C174.863 12.4805 175.598 12.6406 176.207 12.9609C176.824 13.2734 177.273 13.7227 177.555 14.3086L175.75 15.5508C175.617 15.1992 175.383 14.9219 175.047 14.7188C174.719 14.5078 174.336 14.4023 173.898 14.4023C173.414 14.4023 173.023 14.5195 172.727 14.7539C172.438 14.9805 172.293 15.2852 172.293 15.668C172.293 16.2461 172.949 16.7734 174.262 17.25C174.676 17.3984 174.996 17.5195 175.223 17.6133C176.246 18.0195 176.977 18.4805 177.414 18.9961C177.859 19.5039 178.082 20.1406 178.082 20.9062C178.082 22.0156 177.68 22.8867 176.875 23.5195C176.07 24.1445 174.961 24.457 173.547 24.457C172.461 24.457 171.559 24.2539 170.84 23.8477C170.121 23.4414 169.559 22.8203 169.152 21.9844Z" fill="#707070"/>
<path d="M64.4675 31C73.0099 31 79.935 24.075 79.935 15.5325C79.935 6.99006 73.0099 0.065033 64.4675 0.065033C55.925 0.065033 49 6.99006 49 15.5325C49 24.075 55.925 31 64.4675 31Z" fill="#0098DA"/>
<path fill-rule="evenodd" clip-rule="evenodd" d="M68.7506 0.876702C68.6176 0.744332 68.4539 0.774608 68.2652 0.755913C67.7844 0.70858 67.2601 0.505523 66.7896 0.434523C66.7739 0.438992 66.7499 0.434837 66.7492 0.454476C66.9751 0.59761 67.2228 0.598491 67.5376 0.635565C67.95 0.683969 68.3391 0.936939 68.7506 0.876702ZM74.6933 6.54485C74.6775 6.54932 74.6699 6.56165 74.6731 6.58507C74.7701 6.71731 74.8795 6.87297 74.9967 7.00717C75.1035 7.1296 75.2306 7.35135 75.4008 7.32888C75.2885 6.95751 75.0662 6.59011 74.6933 6.54485ZM72.7933 6.16284C72.6886 5.97206 72.6322 5.73357 72.5507 5.51981C72.4103 5.54782 72.3144 5.61976 72.2071 5.68057C72.1796 5.87437 72.141 6.05729 72.0454 6.18317C72.2258 6.35256 72.6646 6.45094 72.7933 6.16284ZM65.6374 5.03728C65.3877 5.00581 65.2182 5.0184 65.0109 5.01714C64.9682 5.05528 64.9656 5.13296 64.9098 5.15795C64.3942 5.0578 64.2541 5.42288 63.9193 5.55991C63.9466 5.83428 64.1982 5.88576 64.4247 5.96199C64.49 5.88627 64.6113 5.86631 64.6267 5.74093C64.6346 5.67176 64.5253 5.61561 64.5863 5.55991C64.6585 5.69838 64.7477 5.51219 64.8491 5.49967C64.8708 5.66276 64.6958 5.78411 64.7076 6.00227C64.5489 5.99831 64.5222 6.12583 64.4854 6.24329C64.5336 6.33619 64.6595 6.35167 64.7683 6.38403C64.6754 6.39215 64.6142 6.43205 64.5258 6.44426C64.3123 6.36842 63.7956 5.98968 63.6969 6.30365C63.7015 6.33241 63.7975 6.28495 63.8586 6.30365C63.9458 6.4515 64.0231 6.60905 64.1013 6.76597C64.2882 6.67521 64.4268 6.77573 64.5459 6.80632C64.9173 6.90142 65.082 6.66406 65.3746 6.76597C65.3964 6.68345 65.4083 6.5806 65.3544 6.52464C65.1525 6.59262 65.1246 6.37987 65.0109 6.36388C65.0939 6.30277 65.3145 6.4459 65.4353 6.3236C65.4856 6.23768 65.5187 6.10368 65.4758 5.98213C65.5538 5.85209 65.6899 5.77964 65.8801 5.76095C66.0898 5.55827 66.0425 5.20396 66.1427 4.91662C65.9683 5.02218 65.761 4.83423 65.6374 5.03728ZM63.6767 7.12783C63.7462 7.13916 63.7394 7.22615 63.7778 7.26845C63.9695 7.22458 64.0198 7.04009 64.1416 6.92679C64.0725 6.88827 64.0846 6.76924 64.0002 6.74583C63.9366 6.8568 63.7248 6.82035 63.6565 6.92679C63.6857 7.00069 63.6598 7.08484 63.6767 7.12783ZM63.6767 0.394239C63.6793 0.576209 64.1902 0.570481 64.2831 0.414381C64.1099 0.390084 63.8584 0.343695 63.6767 0.394239ZM66.5068 5.29856C66.4643 5.47751 66.3077 5.54297 66.244 5.70071C66.1455 5.66527 66.1048 5.73055 66.0215 5.76095C66.0529 5.82421 66.0345 5.87299 66.0013 5.92189C66.2611 6.09902 66.6026 6.19488 67.0322 6.20332C67.1009 6.17757 67.109 6.09165 67.1941 6.08265C67.7678 6.12187 67.9825 6.51785 68.3462 6.76597C68.45 6.78202 68.4787 6.72355 68.5685 6.72575C68.6033 6.75829 68.6188 6.8099 68.6089 6.88644C68.5882 6.9329 68.4737 6.88594 68.4876 6.96682C68.5286 7.18732 68.9859 6.99408 69.0131 7.22835C68.9959 7.2913 68.9369 7.31301 68.9324 7.38911C69.0754 7.83797 69.4217 8.09912 69.8421 8.29349C70.2078 8.46287 70.347 8.73623 70.7921 8.73586C70.9933 8.65441 71.1529 8.53179 71.1964 8.29349C71.092 7.93509 70.7623 7.80058 70.7516 7.34864C70.8158 7.29199 70.8827 7.23805 70.9538 7.18807C70.9652 7.07874 70.9855 6.9784 71.0145 6.88644C70.8085 6.46283 71.1705 6.16605 71.3176 5.90175C71.2772 5.69838 71.1368 5.60019 71.0346 5.47971C70.9754 5.40972 70.9787 5.34873 70.9134 5.29856C70.8805 5.27357 70.8188 5.27452 70.7719 5.23833C70.5669 5.08078 70.4362 4.8071 70.2868 4.67567C70.184 4.58522 70.0024 4.51321 69.8824 4.41439C69.7735 4.32445 69.7451 4.20806 69.6196 4.19314C69.5275 4.16853 69.5404 4.24835 69.4579 4.23343C69.3183 4.02389 69.164 3.82883 69.0538 3.59021C68.9692 3.60714 68.9583 3.55118 68.892 3.54992C68.9097 3.72163 68.5243 3.64862 68.5282 3.87144C68.3508 3.86697 68.224 3.81227 68.0229 3.83134C67.8713 4.08293 67.6392 4.25376 67.3153 4.33376C67.3014 4.41452 67.3347 4.4487 67.3355 4.51472C67.2862 4.53273 67.2479 4.56149 67.1737 4.55501C67.1424 4.80534 66.8247 4.7704 66.7089 4.93676C66.7274 5.03911 66.7797 5.10778 66.7896 5.21818C66.6933 5.24279 66.6417 5.31222 66.5068 5.29856ZM77.3616 8.17301C77.2354 7.90613 77.0124 7.70188 76.9169 7.4693C76.7983 7.1814 76.8303 6.92534 76.6742 6.70561C76.7867 6.76729 76.8457 6.66476 76.9774 6.68559C77.0414 6.52055 76.8945 6.36804 76.7754 6.22327C76.7871 6.27079 76.6532 6.25115 76.6541 6.34374C76.5091 6.26695 76.3997 6.1546 76.3508 5.98213C76.4297 5.9866 76.425 5.90842 76.4519 5.8614C76.6075 5.88123 76.6744 6.0598 76.767 6.13263C76.3699 5.61958 75.9422 5.13151 75.4862 4.67114C75.1623 4.37083 74.8549 4.07682 74.5413 3.79068C73.6258 3.00521 72.6188 2.32239 71.5389 1.7588C71.3529 1.67174 71.1642 1.58595 70.9741 1.49985C70.5276 1.29773 70.0811 1.0938 69.6198 0.912328C68.4318 0.480409 67.1774 0.186524 65.8762 0.0474816C63.4946 -0.122026 61.0971 0.16569 59.3913 0.85656C58.319 1.29087 57.274 1.68005 56.3996 2.26354C56.6178 2.15226 56.788 1.99314 57.0466 1.92188C56.6621 2.22294 56.286 2.53244 55.9347 2.86654C55.9642 2.87749 56.0392 2.84294 56.0357 2.88668C55.8771 3.03467 55.627 3.19983 55.672 3.4292C55.5299 3.44934 55.497 3.28285 55.3688 3.26863C55.2659 3.25711 55.0656 3.36984 54.924 3.44934C54.663 3.59612 54.3725 3.70149 54.2772 3.93186C54.6556 4.03295 54.9023 3.66051 55.3081 3.8112C55.2807 3.94502 55.2612 4.08614 55.2677 4.25338C55.397 4.29656 55.3709 4.38002 55.3889 4.51472C55.5836 4.43359 55.7604 4.3347 56.0156 4.31381C55.9852 4.60517 56.0444 4.80779 56.2177 4.89667C56.3323 4.64099 56.4891 4.44744 56.6421 4.23343C56.7209 4.12334 56.7547 3.99947 56.8242 3.87144C56.9316 3.67348 57.2345 3.42007 57.006 3.16811C57.3462 2.97034 57.5027 2.58997 57.8752 2.4243C57.8754 2.37092 57.8676 2.30962 57.8955 2.28356C57.999 2.24598 58.1131 2.2186 58.1381 2.10259C58.3433 1.94404 58.6111 1.88399 58.805 1.7007C58.8447 1.6635 58.8637 1.61365 58.9061 1.58022C59.007 1.50073 59.1503 1.46082 59.27 1.37912C59.3838 1.3017 59.4819 1.18532 59.5935 1.1179C59.9513 0.901502 60.4446 0.830691 60.8872 0.67566C61.3322 0.519748 61.8122 0.429676 62.2616 0.354143C62.2438 0.372145 62.1211 0.385426 62.1808 0.414381C62.3607 0.374852 62.5025 0.40859 62.6861 0.394239C62.9359 0.3746 63.1633 0.245503 63.4138 0.213338C63.6516 0.182937 63.9385 0.236376 64.2023 0.213338C64.5772 0.180734 65.0993 0.0958853 65.4959 0.153101C65.548 0.160591 65.4515 0.192063 65.5362 0.193196C65.901 0.198421 66.2346 0.241726 66.5469 0.253622C66.6255 0.255762 66.6151 0.34659 66.6887 0.354143C67.2875 0.309328 67.6864 0.487773 68.1036 0.595092C68.5704 0.715566 68.9437 0.827795 69.3367 0.977035C69.5367 1.05313 69.7733 1.12074 69.9228 1.19828C69.9918 1.23403 70.0331 1.31152 70.1047 1.3389C70.2128 1.38038 70.3441 1.36068 70.4484 1.39914C70.614 1.46044 70.7571 1.58816 70.9133 1.6606C71.113 1.75319 71.3763 1.77548 71.4994 1.98212C71.0286 2.02769 70.9449 1.51564 70.4281 1.53994C70.481 1.71549 70.8629 1.92132 70.7313 2.16302C71.0297 2.38893 71.2585 2.68401 71.6409 2.82626C71.7463 3.04222 71.9514 3.0708 72.1464 3.2082C72.2506 3.28159 72.3305 3.40603 72.4294 3.46973C72.6012 3.58014 72.8139 3.62206 72.955 3.75096C73.1135 3.89611 73.1684 4.14159 73.3188 4.31381C73.5292 4.55539 73.7794 4.6566 74.0668 4.79615C74.0798 4.70186 74.0402 4.55539 74.0868 4.49477C74.2746 4.48898 74.3986 4.54632 74.5518 4.57515C74.3335 4.1421 73.9196 3.90398 73.5412 3.6303C72.9502 3.49434 72.639 2.97298 72.2273 2.72593C72.6315 2.81298 72.7567 3.1773 73.1571 3.26863C73.229 3.29997 73.169 3.20033 73.2178 3.2082C73.899 3.64956 74.6755 4.10364 74.8752 4.9569C74.7217 4.84146 74.5365 4.65068 74.2889 4.69562C74.5075 4.88729 74.7801 5.02469 74.9966 5.21818C74.9967 5.27162 74.9889 5.33312 75.0167 5.35899C75.1548 5.48381 75.1971 5.66005 75.2997 5.82137C75.508 6.14862 75.8555 6.43168 75.9263 6.80632C75.9614 6.99219 75.9204 7.18102 76.0275 7.36897C76.7327 7.47075 76.9313 8.18472 76.735 8.83644C77.0429 9.2 77.2466 9.66736 77.5636 10.0222C77.6106 9.87275 77.7474 9.87117 77.786 9.74075C77.8108 9.65823 77.7913 9.50717 77.786 9.43919C77.742 8.86917 77.5553 8.58246 77.3616 8.17301ZM76.6541 22.7051C76.5437 22.6574 75.9346 22.609 75.8455 22.6247C75.6044 22.6676 75.4143 22.916 75.2391 22.9666C75.172 22.9462 75.1759 22.8553 75.0774 22.866C74.7315 22.9682 74.3347 22.8809 74.0263 23.0671C74.059 22.6404 73.8319 22.1183 73.3592 22.1426C73.0645 22.1573 72.8386 22.4012 72.5103 22.4037C72.5106 22.3162 72.5169 22.2229 72.4899 22.1625H72.2071C71.9285 21.9368 71.609 21.7524 71.1761 21.6802C70.9923 21.7896 70.761 21.8288 70.4888 21.8209C69.9833 21.8065 69.4009 21.7789 68.9928 21.9615C69.0292 21.889 69.0596 21.7634 68.9928 21.7002C68.4778 21.9586 67.9303 22.1848 67.6587 22.6851C67.3926 22.7011 67.192 22.5873 66.9513 22.6247C66.8522 22.6404 66.7687 22.7391 66.6683 22.7453C66.3839 22.7633 66.1661 22.5619 65.9001 22.4842C66.0644 22.0976 65.9696 21.6004 65.7991 21.2781C65.4092 21.172 64.8873 21.1141 64.465 21.1574C64.5607 20.7166 64.7676 20.3864 64.9502 20.0319C64.6566 19.9006 64.4002 19.858 64.081 19.9918C63.8177 20.1022 63.601 20.3872 63.3533 20.4338C63.0729 20.4867 62.7202 20.3682 62.4031 20.3133C62.3705 20.1439 62.4245 20.0337 62.383 19.8709C62.3468 19.7298 62.1921 19.6229 62.1808 19.4894C62.1713 19.3767 62.2587 19.268 62.2819 19.1676C62.3563 18.8458 62.3936 18.5049 62.4031 18.1425C62.5256 18.0404 62.6192 17.8784 62.7671 17.841C63.2002 17.7315 63.371 17.9818 63.6565 18.0018C63.7765 18.0102 63.9492 17.9854 64.0608 17.9416C64.1556 17.9041 64.2131 17.7775 64.3437 17.7405C64.6667 17.6489 64.9819 17.6736 65.3111 17.6596C65.5496 17.6495 65.6097 17.6975 65.6763 17.9486C65.7621 18.2718 66.0138 18.4377 66.0805 18.7621C66.1021 18.8669 66.3738 18.6305 66.3908 18.6044C66.4914 18.451 66.5449 18.1634 66.4922 17.9836C66.4544 17.8547 66.3594 17.7547 66.3105 17.6315C66.2605 17.5049 66.2791 17.3821 66.2236 17.258C66.4127 16.9057 66.8396 16.8287 67.093 16.5547C67.1728 16.468 67.2763 16.3215 67.3354 16.2128C67.4212 16.0558 67.5604 15.7711 67.6185 15.5696C67.6917 15.3155 67.5733 15.0644 67.6993 14.7657C67.9855 14.6485 68.2849 14.5442 68.5281 14.3837C68.4808 14.3304 68.4221 14.2881 68.407 14.203C68.4966 14.0687 68.6152 13.8867 68.7098 13.8211C68.7701 13.4321 68.8228 13.0354 68.8919 12.6552C69.0376 12.606 69.1327 12.5059 69.3163 12.4945C69.3097 12.4207 69.2362 12.4133 69.2558 12.3135C69.1015 12.3126 68.7858 12.3168 68.7302 12.1528C69.0039 11.7857 69.6869 11.95 70.0239 11.6503C70.0533 11.5455 70.0821 11.4403 70.1453 11.3689C70.2084 11.416 70.2569 11.3734 70.2867 11.4292C70.2424 11.6244 70.1407 11.8676 70.2058 12.0522C70.4237 11.9004 70.7106 11.8172 70.9133 11.6503C70.9175 11.6728 70.9356 11.6816 70.9537 11.6902C70.9674 11.612 70.8276 11.625 70.7313 11.6101C70.5222 11.3757 70.4066 11.0486 70.2664 10.7458C69.8605 10.451 69.2546 10.3933 68.8516 10.1024C68.6644 9.96767 68.6073 9.72722 68.3865 9.68045C68.2778 9.79344 68.2623 9.99907 68.1238 10.0822C67.9738 10.084 67.8227 10.0871 67.6993 10.0624C67.5813 9.75095 67.416 9.48646 67.194 9.27837C66.8619 9.21952 66.41 9.20208 66.2036 9.37889C66.1927 9.98586 66.1935 10.5812 66.5469 10.8262C66.4539 11.0256 66.2004 11.1197 66.1831 11.3888C66.1698 11.5973 66.4374 12.0035 66.1224 12.1326C65.913 11.9323 65.7084 11.7271 65.7587 11.2683C65.5421 11.2158 65.3463 11.1311 65.132 11.0472C64.94 10.9718 64.7184 10.8314 64.5257 10.806C64.3049 10.7771 64.0631 10.876 63.8586 10.7256C63.7583 10.5104 63.5649 10.4005 63.5554 10.1428C63.5393 9.71394 64.0029 9.5197 64.1618 9.21807C64.4263 9.18609 64.6081 8.96529 64.748 8.87622C64.6912 9.13253 64.8304 9.28158 65.0108 9.35875C65.1206 9.30046 65.169 9.18087 65.2534 9.09747C65.3477 9.15103 65.4579 9.18893 65.597 9.19799V9.01709C65.3136 8.9036 65.0297 8.79049 64.8693 8.55489C65.1553 8.43297 65.6434 8.30639 65.3745 7.87133C65.449 7.87516 65.4775 7.70434 65.5768 7.67035C65.8502 7.89424 66.398 7.84533 66.648 8.09257C66.6195 8.25818 66.5556 8.3891 66.5268 8.55489C66.3493 8.60613 66.2241 8.70917 66.0418 8.75594C66.0551 8.84947 66.0098 8.88491 66.0013 8.95685C66.1965 8.93646 66.385 8.90952 66.5672 8.87622C66.8488 9.07223 67.1659 9.23248 67.5375 9.3388C67.6167 9.28359 67.7102 9.24243 67.8205 9.21807C67.8441 9.00714 68.0626 8.92821 68.0026 8.69551C67.7985 8.59681 67.564 8.52846 67.4768 8.31357C67.7391 8.29827 67.8921 8.42485 68.1238 8.33371C68.1264 8.21714 68.0856 8.14375 68.0833 8.03215C67.8983 7.91469 67.7231 7.78755 67.4163 7.79095C67.1857 7.60488 66.9854 7.38848 66.648 7.30867C66.6071 7.36173 66.5574 7.40592 66.4459 7.38905C66.253 7.24378 66.1566 6.99464 65.9204 6.90652C65.6964 6.82312 65.4047 6.84956 65.0918 6.78605C65.0016 6.85749 64.987 7.00371 64.9299 7.10763C64.8902 7.01989 64.8487 6.93378 64.7682 6.88638C64.6658 6.88512 64.6008 6.92094 64.4853 6.90652C64.3404 7.10763 64.2399 7.53772 64.4448 7.75072C64.6545 7.82066 64.8442 7.80032 65.0714 7.8311C64.9648 7.9597 64.8406 8.07098 64.6874 8.15281C64.5584 8.09383 64.4619 7.96341 64.3033 7.99205C64.0676 7.82424 63.9372 7.55201 63.7373 7.34858C63.603 7.47428 63.6028 7.82783 63.798 7.89147C63.7569 7.97241 63.8325 8.09849 63.7778 8.1929C63.6853 8.12455 63.643 8.2821 63.5757 8.23319C63.6167 8.08124 63.6408 7.88089 63.5352 7.79095C63.2421 7.80102 63.1157 7.97694 62.9489 8.11271C62.5278 8.06557 62.2437 7.90771 61.8978 8.11271C61.8224 8.04688 61.6923 8.03536 61.6956 7.89147C62.0642 7.92835 62.5809 8.01918 62.8277 7.75072C62.709 7.77011 62.7029 7.5347 62.6052 7.46924C62.6214 7.27915 62.5663 7.15975 62.565 6.98697C62.4393 6.92994 62.3844 6.77333 62.2011 6.76591C62.1372 6.76345 62.0655 6.82168 61.9989 6.82614C61.6817 6.84723 61.5444 6.72134 61.4329 6.54479C61.453 6.49097 61.4746 6.43885 61.4734 6.36382C61.332 6.29641 61.2624 6.32448 61.0892 6.34368C60.9817 6.26997 60.9202 6.15 60.7861 6.10273C60.6014 6.29427 60.4603 6.52911 60.3009 6.74577C60.4186 6.9283 60.7558 6.77277 60.9477 6.88638C61.0405 6.79795 61.1021 6.67804 61.2307 6.62517C61.2678 6.74577 61.1186 6.77711 61.0892 6.92673C61.0559 7.09668 61.1995 7.35147 61.0489 7.48938C60.7632 7.2709 60.2606 7.26839 60.0584 6.96676C60.0229 6.96128 59.9575 7.02347 59.9371 6.96676C59.9092 6.9035 59.9872 6.84559 59.9371 6.82614C59.6764 6.98331 59.4911 6.72657 59.1487 6.78605C59.0333 6.69308 58.9077 6.61025 58.7445 6.56493C58.7163 6.31296 58.645 6.14069 58.4615 6.02216C58.1594 5.82742 57.8162 5.84913 58.0977 5.43937C57.9903 5.35465 57.9531 5.22429 57.956 5.0775C57.6753 4.97283 57.3406 4.93575 57.006 4.97698C56.8623 5.22007 56.5285 5.41866 56.1974 5.2985C56.1814 5.37151 56.1694 5.47531 56.157 5.60013C56.2079 5.64343 56.255 5.69039 56.2985 5.74087C56.2007 5.75062 56.2008 5.85801 56.1167 5.88155C56.0325 5.87141 55.9986 5.81118 55.9145 5.80111C55.5755 5.85945 55.5303 5.97917 55.3485 6.2633C55.1826 6.52276 55.1473 6.80386 55.0655 7.06735C55.1139 7.07956 55.2121 7.04217 55.2272 7.08749C55.1185 7.24699 54.6463 7.30005 54.4591 7.18801C54.497 7.37124 54.6354 7.4547 54.7623 7.54987C54.9728 7.45577 55.2479 7.37992 55.4293 7.50971C55.2816 7.62855 55.5354 7.70339 55.3889 7.8311C55.5289 7.80951 55.5654 7.68507 55.591 7.54987C55.758 7.48365 55.8538 7.19323 56.056 7.28853C56.03 7.40705 55.9136 7.53061 55.9145 7.61023C56.1009 7.69836 56.2387 7.59387 56.3996 7.54987C56.377 7.61439 56.3443 7.6689 56.3391 7.75072C56.4085 7.74191 56.4522 7.75859 56.5006 7.77087C56.6844 8.20474 57.1365 8.37148 57.1274 8.99688C57.1912 8.99367 57.2493 8.99619 57.2688 9.03698C57.4894 9.53052 57.2874 10.3079 57.4103 10.8262C57.1121 11.0315 57.368 11.2551 57.4306 11.4493C57.5696 11.8801 57.3429 12.2875 57.2081 12.6151C57.1359 12.791 57.0088 12.9422 56.9445 13.121C56.8869 13.2812 56.9198 13.4375 56.9244 13.6107C56.9349 14.0097 56.9085 14.4128 56.9824 14.8075C56.9978 14.8898 57.0119 14.9754 57.0228 15.0598C57.0306 15.1218 57.0087 15.2317 57.0134 15.2693C57.0297 15.4016 57.1763 15.4511 57.2541 15.5382C57.3294 15.623 57.3813 15.7399 57.4508 15.8312C57.5339 15.9402 57.6709 16.0366 57.7338 16.1727C57.8285 16.3779 57.7754 16.59 57.8161 16.8005C57.8381 16.9151 57.9021 16.9131 57.9336 16.9997C57.9609 17.0744 57.9121 17.1314 57.9166 17.2078C57.9212 17.2921 57.9762 17.365 58.0159 17.4402C58.0678 17.5385 58.0847 17.654 58.1412 17.7495C58.1911 17.8336 58.2808 17.8694 58.3307 17.9424C58.4586 18.1295 58.501 18.372 58.6433 18.5646C58.7799 18.7491 58.9125 18.9522 59.1285 18.9466C59.1349 18.8616 59.23 18.4974 59.11 18.4445C58.883 18.345 58.6842 18.039 58.5595 17.8356C58.4947 17.73 58.3516 17.5326 58.3236 17.4276C58.2611 17.1918 58.4427 16.8973 58.3645 16.6957C58.4843 16.7162 58.478 16.8414 58.5019 16.9367C58.5829 17.2594 58.6757 17.5728 58.7646 17.8612C59.1303 18.0208 59.3149 18.2305 59.5329 18.5244C59.6521 18.6851 59.7989 18.8515 59.8763 19.0069C59.99 19.2345 59.9529 19.4858 60.0382 19.7303C60.1222 19.9714 60.372 20.129 60.4424 20.3534C61.09 20.5874 61.7235 20.8352 62.2212 21.2177C62.6638 20.9524 62.966 21.2849 63.2723 21.4591C63.8786 21.8036 64.9142 21.6876 65.1119 22.3435C65.1881 22.3614 65.2447 22.399 65.2736 22.4639C65.2967 22.5475 65.2311 22.5423 65.2332 22.6049C65.4661 22.6946 65.6845 22.7993 65.7991 23.0066C66.1384 23.1573 66.6573 23.1097 66.9919 22.9867C67.0789 23.1278 67.3005 23.1354 67.3961 23.2679C67.4008 23.4437 67.4307 23.5598 67.3758 23.6902C67.3197 23.8232 67.0563 24.2583 66.9714 24.3534C66.8518 24.4873 66.6758 24.5609 66.6078 24.7152C66.5036 24.9514 66.5737 25.1729 66.628 25.3784C66.3191 25.5039 66.4778 25.8816 66.5875 26.1222C66.7469 26.1647 66.8725 26.2408 67.0119 26.3031C67.1413 26.8178 67.6183 26.9865 67.7196 27.5292C68.0972 27.6841 68.5218 27.4267 68.8516 27.67C68.864 27.7446 68.8996 27.7963 68.9121 27.8711C68.7942 28.0284 68.6896 28.1991 68.6493 28.4338C68.1814 28.9198 68.1029 29.7931 67.3354 29.9814C67.2889 30.1228 67.2204 30.2422 67.1535 30.3634C67.1838 30.3668 67.2281 30.3561 67.2343 30.3835C67.0473 30.5401 66.5458 30.4882 66.5268 30.7451C66.7557 30.8301 67.0728 30.678 67.3557 30.6851C67.4026 30.6556 67.3161 30.6212 67.3961 30.6249C68.1535 30.3626 68.8661 30.1004 69.5388 29.7201C69.8179 29.6237 70.0533 29.586 70.3069 29.479C70.5501 29.3764 70.6838 29.18 70.8931 29.0569C71.0326 28.9745 71.1761 28.9314 71.3175 28.8357C71.8276 28.4904 72.4452 28.2234 72.8133 27.7705C72.8814 27.5269 73.0501 27.3954 73.2178 27.2679C73.9147 26.7376 74.7652 26.2087 75.2391 25.479C75.4083 25.2188 75.4297 24.8983 75.603 24.5544C75.8987 23.9687 76.5781 23.5832 76.7754 22.8459C76.7392 22.8266 76.7093 22.729 76.6541 22.7051ZM66.7089 14.0421C66.7869 14.0449 66.8023 14.1101 66.8908 14.1025C66.9209 14.0854 66.92 14.0378 66.9313 14.002H67.012C67.0627 14.0631 67.0291 14.0827 67.0322 14.1829C66.9512 14.2295 66.8479 14.2541 66.729 14.2633C66.6853 14.2152 66.6758 14.1107 66.7089 14.0421ZM66.0931 13.7452C66.1509 13.8169 66.1789 13.9081 66.158 14.046C66.0114 14.0838 65.848 14.0969 65.7045 14.0396C65.7983 13.8291 65.5112 13.5984 65.3387 13.518C65.4885 13.3006 65.5774 13.3801 65.7509 13.4965C65.8881 13.5887 66.0167 13.6504 66.0931 13.7452ZM64.8521 14.6278C64.808 14.711 64.772 14.7963 64.7637 14.884C64.4159 14.9353 64.3833 14.6384 64.4728 14.3796C64.5097 14.273 64.9902 13.6195 64.9906 13.62C65.0488 13.6623 65.1098 13.6418 65.1523 13.6603C65.1502 13.8921 65.1095 14.1095 65.0181 14.3226C64.9751 14.4224 64.9073 14.5237 64.8521 14.6278ZM65.0918 12.9768C65.1724 13.0841 65.2515 13.1931 65.294 13.3386C64.8437 13.3454 64.5236 13.4508 64.0811 13.4189C64.0619 13.3576 63.9827 13.3559 63.9799 13.2783C64.3562 13.1621 64.6124 12.7585 65.0918 12.9768ZM77.7319 7.55453C77.6795 7.46874 77.6244 7.38603 77.5636 7.30867C77.619 7.3871 77.6751 7.46981 77.7319 7.55453ZM79.8884 14.6652C79.811 13.9495 79.741 13.263 79.6459 12.5749C79.6099 12.3157 79.5912 12.0445 79.5509 11.7893C79.4887 11.5502 79.4209 11.3132 79.3478 11.0784C79.2551 10.8429 79.1468 10.6025 79.0596 10.3638C78.9692 10.1167 78.8915 9.85556 78.808 9.6087C78.5575 9.0198 78.272 8.44896 77.9543 7.89908C77.8799 7.77987 77.8054 7.66455 77.7319 7.55453C77.8602 7.7647 77.9655 7.99816 78.0489 8.25333C77.9231 8.14236 77.7912 7.82821 77.6647 7.85118C77.7829 8.47074 77.9084 9.08305 78.0085 9.72055C77.9772 9.79016 77.8503 9.76442 77.8466 9.86135C77.9705 10.2138 78.0543 10.6062 78.0893 11.0472C78.2579 11.3678 78.478 11.7375 78.4934 12.1326C78.5042 12.4016 78.4226 12.6651 78.4126 12.9165C78.4005 13.2312 78.4095 13.5756 78.4531 13.8813C78.5245 14.3807 78.8132 14.8481 78.8777 15.3687C78.9015 15.5627 78.8431 15.7219 78.8777 15.8912C78.9195 16.0981 79.0711 16.3145 79.0394 16.5547C79.1206 16.5876 79.2448 16.5781 79.3222 16.6149C79.379 16.7329 79.4292 16.857 79.4436 17.017C79.5286 17.0465 79.6038 17.0855 79.686 17.1174C79.7508 16.6301 80.0002 16.18 80.0096 15.6903C80.0159 15.3655 79.9254 15.0086 79.8884 14.6652ZM77.4223 7.46924C77.3102 7.37992 77.3219 7.16711 77.1594 7.12777C77.2199 7.25542 77.2959 7.47409 77.4223 7.46924ZM75.7848 7.10763C75.7436 6.79939 75.6319 6.38919 75.4616 6.14264C75.3263 6.09625 75.2022 6.03891 74.9966 6.06226C74.7087 5.91321 74.4322 5.75276 74.1274 5.6202C74.1137 5.66697 74.0602 5.67396 74.0465 5.72073C74.1685 5.86071 74.2626 6.02858 74.4103 6.14264C74.447 6.09209 74.489 6.04677 74.5721 6.04212C75.0623 6.30535 75.4039 6.71612 75.7242 7.14785C75.7325 7.12255 75.7503 7.10675 75.7848 7.10763ZM67.8005 20.0721C67.8972 19.9874 67.9155 19.8248 68.0833 19.8106C67.9477 19.7542 67.8139 19.5828 67.6386 19.5495C67.5018 19.5234 67.3403 19.5765 67.194 19.5697C66.713 19.5468 66.2071 19.213 65.7789 19.3885C65.751 19.4549 65.7258 19.5234 65.6981 19.5898C66.0639 19.6796 66.4291 19.697 66.7693 19.8308C66.9678 19.9088 67.1857 20.1313 67.3758 20.1323C67.5307 20.1332 67.6421 19.9469 67.8005 20.0721ZM55.2879 6.10273C55.2606 6.15592 55.1813 6.15737 55.1868 6.24322C55.232 6.22018 55.3284 6.14421 55.2879 6.10273ZM69.9835 19.9716C69.9558 20.2005 70.1028 20.244 70.2664 20.2328C70.2856 20.1178 70.3655 20.0633 70.4079 19.9716C70.2692 19.859 70.1372 19.916 69.9835 19.9716ZM56.8848 10.3638C56.9681 10.3528 57.0031 10.2938 57.0668 10.2633C57.0311 10.1228 57.0914 10.1087 57.1476 10.0221C57.0126 10.0955 57.0907 9.92682 56.9859 9.92165C56.9807 9.94985 56.9415 9.94463 56.9253 9.96169C56.9881 10.1302 56.8516 10.1703 56.8848 10.3638ZM57.5518 3.63024C57.4733 3.64591 57.3863 3.65321 57.3497 3.71062C57.3788 3.72195 57.3991 3.74209 57.4104 3.77104C57.4897 3.75613 57.5191 3.69136 57.5518 3.63024ZM70.226 20.4138C70.2432 20.3839 70.2768 20.3704 70.3271 20.3735C70.324 20.3499 70.3305 20.3165 70.3069 20.3132C70.2996 20.3542 70.1448 20.3509 70.226 20.4138ZM67.1334 20.4138V20.6147C67.3025 20.7303 67.5943 20.5873 67.6386 20.3937C67.4558 20.3633 67.2853 20.335 67.1334 20.4138ZM68.326 20.0721C68.3552 20.1369 68.4012 20.1847 68.427 20.253C68.881 20.4457 69.2621 20.2872 69.7005 20.1724C69.7168 20.0489 69.6367 20.0215 69.64 19.9111C69.254 19.8809 68.9173 19.8546 68.4673 19.8308C68.443 19.9338 68.3553 19.9741 68.326 20.0721ZM59.3913 1.58016C59.3198 1.56934 59.2872 1.59722 59.27 1.6404C59.325 1.64846 59.4397 1.54598 59.3913 1.58016ZM69.296 2.0625C69.1365 2.04034 69.0313 1.96393 68.8716 1.94196C68.8765 2.02417 68.933 2.05514 68.9323 2.143C69.0262 2.17013 69.1302 2.18725 69.2354 2.20312C69.2005 2.26908 69.1288 2.29822 69.0939 2.364C69.2353 2.64926 69.7146 2.6825 69.9834 2.48447C69.8115 2.33404 69.604 2.21879 69.3162 2.1831C69.2782 2.15207 69.3453 2.10467 69.296 2.0625ZM63.5756 0.374223C63.4962 0.316314 63.3697 0.383035 63.2925 0.394176C63.2281 0.378692 63.1391 0.41885 63.2522 0.414318C63.3406 0.4366 63.5537 0.510936 63.5756 0.374223ZM63.1712 6.00221C63.2986 6.00164 63.3941 5.9691 63.4744 5.92183V5.80111C63.2731 5.81823 63.3248 5.58842 63.1308 5.70065C63.0747 5.83692 63.1188 5.88602 63.1712 6.00221ZM63.5554 7.38905C63.5272 7.27399 63.6017 7.26102 63.616 7.18801C63.5809 7.07565 63.5421 6.96663 63.5149 6.84629C63.4124 6.80103 63.3565 6.70907 63.2319 6.68553C63.0623 6.81179 62.9259 6.97073 62.8276 7.16787C62.9504 7.36085 63.2066 7.42109 63.5554 7.38905ZM62.2414 6.22321C62.0269 6.17285 61.7713 5.87878 61.6149 6.12281C61.6433 6.22824 61.7009 6.30503 61.7563 6.38396C61.9333 6.3219 62.0663 6.49154 62.2212 6.52458C62.3405 6.55026 62.464 6.46674 62.5852 6.54479C62.5957 6.35067 62.5248 6.2752 62.5852 6.12281C62.419 6.05024 62.3421 6.17159 62.2414 6.22321ZM59.5731 1.43929C59.7589 1.32927 60.0268 1.30088 60.1594 1.13792C59.8959 1.15737 59.6684 1.31957 59.5731 1.43929ZM61.1095 5.96193C61.1741 5.97124 61.1806 6.0384 61.2509 6.04212C61.3662 5.89571 61.6975 5.96375 61.8777 5.88155C61.7967 5.48015 61.4327 5.78493 61.1499 5.8412C61.1715 5.91623 61.0998 5.89867 61.1095 5.96193ZM62.9893 6.42406C63.1949 6.43413 63.3078 6.53648 63.434 6.62517C63.4292 6.48788 63.6007 6.45893 63.5351 6.32354C63.3953 6.31542 63.3066 6.25613 63.2116 6.20325C63.1529 6.29207 63.0221 6.30931 62.9893 6.42406Z" fill="#FEFEFE"/>
<path fill-rule="evenodd" clip-rule="evenodd" d="M64.4674 0.065033C73.0099 0.065033 79.9349 6.99004 79.9349 15.5325C79.9349 24.075 73.0099 31 64.4674 31V0.065033Z" fill="#373435" fill-opacity="0.501961"/>
</svg>
