<svg width="390" height="255" viewBox="0 0 390 255" fill="none" xmlns="http://www.w3.org/2000/svg">
<rect width="390" height="255" fill="#0098DA"/>
<path d="M189.062 121.063C193.803 121.063 197.646 117.22 197.646 112.479C197.646 107.739 193.803 103.896 189.062 103.896C184.322 103.896 180.479 107.739 180.479 112.479C180.479 117.22 184.322 121.063 189.062 121.063Z" fill="white"/>
<path d="M240.562 82.4375H150.437C148.066 82.4375 146.146 84.358 146.146 86.7292V168.271C146.146 170.642 148.066 172.562 150.437 172.562H240.562C242.934 172.562 244.854 170.642 244.854 168.271V86.7292C244.854 84.358 242.934 82.4375 240.562 82.4375ZM240.562 138.229L218.475 119.545C217.486 118.563 216.059 118.814 215.33 119.668L193.861 144.714L201.937 157.005L171.091 132.262C170.239 131.581 169.005 131.648 168.233 132.42L150.437 146.812V88.875C150.437 87.6884 151.399 86.7292 152.583 86.7292H238.417C239.601 86.7292 240.562 87.6884 240.562 88.875V138.229Z" fill="white"/>
<path d="M195 43C148.25 43 110 81.25 110 128C110 174.75 148.25 213 195 213C241.75 213 280 174.75 280 128C280 81.25 241.75 43 195 43ZM127 128C127 90.6 157.6 60 195 60C210.725 60 225.175 65.525 236.65 74.45L141.45 169.65C132.525 158.175 127 143.725 127 128ZM195 196C179.275 196 164.825 190.475 153.35 181.55L248.55 86.35C257.475 97.825 263 112.275 263 128C263 165.4 232.4 196 195 196V196Z" fill="white"/>
</svg>
